<svg width="125" height="28" viewBox="0 0 125 28" fill="none" xmlns="http://www.w3.org/2000/svg">
<path fill-rule="evenodd" clip-rule="evenodd" d="M61.1669 8.39216C60.6667 8.40135 60.1862 8.18692 59.8441 7.80188C59.4911 7.43305 59.2925 6.93073 59.2925 6.40667C59.2925 5.88262 59.4911 5.3803 59.8441 5.01146C60.1862 4.62643 60.6667 4.41199 61.1669 4.42118C62.2066 4.42118 63.0495 5.31012 63.0495 6.40667C63.0495 7.50323 62.2066 8.39216 61.1669 8.39216ZM51.0522 5.44076H43.5119C43.4063 5.44311 43.3066 5.49209 43.2369 5.57576C43.1673 5.65943 43.1341 5.7701 43.1456 5.88079V22.9024C43.1456 23.1157 43.3096 23.2887 43.5119 23.2887H51.4592C52.9952 23.3684 54.5076 22.8659 55.7229 21.872C56.792 20.9615 57.3946 19.575 57.351 18.1264C57.3533 17.2819 57.1002 16.4585 56.6285 15.776C56.1307 15.0594 55.4691 14.4872 54.7053 14.1125C55.3122 13.7093 55.821 13.1616 56.191 12.5134C56.5581 11.8649 56.7483 11.1221 56.7405 10.3669C56.7821 8.97248 56.1787 7.64365 55.1225 6.80377C53.9568 5.86501 52.5178 5.38314 51.0522 5.44076ZM38.8107 22.516C38.4593 22.7393 38.0919 22.9331 37.7117 23.0955C36.8401 23.406 35.9248 23.5584 35.0049 23.5463C34.0944 23.5571 33.1912 23.3746 32.349 23.0097C31.5533 22.6698 30.8277 22.1704 30.2121 21.5393C29.6113 20.929 29.1306 20.1995 28.7977 19.3929C28.4389 18.5374 28.2519 17.6129 28.2482 16.6776C28.243 15.7581 28.409 14.8465 28.7366 13.9945C29.0594 13.1951 29.5219 12.4669 30.1002 11.848C31.3169 10.5646 32.9687 9.84614 34.6895 9.85177C35.5381 9.84537 36.378 10.0321 37.152 10.3991C37.9082 10.745 38.5901 11.2489 39.1566 11.8802C39.7234 12.5246 40.1658 13.2791 40.4591 14.1018C40.7792 15.0078 40.9378 15.9684 40.9272 16.9351C40.9272 17.439 40.54 17.8474 40.0623 17.8474H31.596C31.8003 18.6537 32.2554 19.3642 32.8883 19.8651C33.5408 20.3755 34.3352 20.6435 35.1474 20.6271C35.6743 20.6288 36.1976 20.5344 36.6941 20.348L36.9078 20.2407C37.5851 19.901 38.39 20.0284 38.943 20.5627C39.1676 20.7763 39.3017 21.0761 39.3151 21.3948C39.3285 21.7136 39.2201 22.0247 39.0142 22.2584C38.9567 22.3528 38.8883 22.4393 38.8107 22.516ZM34.6488 12.6851C33.9381 12.6699 33.2468 12.9295 32.7052 13.4149C32.1423 13.9192 31.7466 14.5997 31.5757 15.3575H37.6811C37.4896 14.6124 37.093 13.9439 36.5415 13.4364C36.0189 12.9503 35.3455 12.683 34.6488 12.6851ZM50.8283 8.49949H46.6359V12.7173H50.8385C51.4886 12.7743 52.1371 12.5881 52.6701 12.1914C53.1119 11.821 53.3611 11.2516 53.3417 10.6567C53.3611 10.0587 53.1123 9.48609 52.6701 9.11123C52.1425 8.69933 51.4936 8.49782 50.8385 8.54242L50.8283 8.49949ZM53.0873 19.5753C52.5364 20.0165 51.8549 20.2371 51.1641 20.1978H46.6359V15.5936H51.1641C51.8561 15.5574 52.5378 15.7818 53.0873 16.2268C53.546 16.6487 53.8092 17.2592 53.8092 17.9011C53.8092 18.5429 53.546 19.1534 53.0873 19.5753ZM62.846 22.9024V10.4313C62.8433 10.326 62.801 10.2261 62.7285 10.1536C62.656 10.0812 62.5591 10.0421 62.4593 10.045H59.9051C59.7028 10.045 59.5388 10.2179 59.5388 10.4313V22.9024C59.5388 23.1157 59.7028 23.2887 59.9051 23.2887H62.4694C62.6735 23.2888 62.8404 23.1175 62.846 22.9024ZM65.4103 22.9024V5.21538C65.4077 5.03067 65.5328 4.87139 65.7054 4.83975H68.2595C68.3554 4.81754 68.4557 4.83686 68.5379 4.89335C68.6202 4.94984 68.6775 5.03879 68.6971 5.14025C68.702 5.16502 68.702 5.19061 68.6971 5.21538V15.6365L74.0394 10.1523C74.1051 10.0788 74.1981 10.0395 74.2938 10.045H76.9598C77.1638 10.0449 77.3308 10.2162 77.3363 10.4313C77.3366 10.5365 77.2962 10.6373 77.2244 10.7104L72.0042 16.1731L77.6212 22.6126C77.7595 22.7659 77.7595 23.0066 77.6212 23.1599C77.5502 23.2234 77.4599 23.2577 77.3669 23.2565H74.1411C74.0411 23.2581 73.9451 23.2152 73.8765 23.1385L68.6971 17.2464V22.9131C68.6971 23.1265 68.533 23.2994 68.3307 23.2994H65.7766C65.5687 23.2994 65.4001 23.1217 65.4001 22.9024H65.4103ZM87.9192 23.0955C88.2975 22.9288 88.6647 22.7351 89.0182 22.516H89.008C89.116 22.4559 89.2153 22.3801 89.3031 22.2906C89.4909 22.0379 89.5751 21.7165 89.5369 21.3979C89.4987 21.0794 89.3412 20.7902 89.0996 20.5949C88.5454 20.0633 87.7421 19.9363 87.0644 20.2729L86.8405 20.3802C86.3478 20.5675 85.8277 20.662 85.304 20.6593C84.4918 20.6757 83.6974 20.4077 83.045 19.8973C82.412 19.3964 81.9569 18.6859 81.7526 17.8796H90.7074C90.9097 17.8796 91.0737 17.7066 91.0737 17.4932V16.9673C91.0843 16.0006 90.9256 15.04 90.6056 14.134C90.3192 13.2982 89.8763 12.5317 89.3031 11.8802C88.7555 11.2647 88.0986 10.7688 87.3697 10.4206C86.5957 10.0535 85.7557 9.86684 84.9071 9.87323C84.0367 9.86854 83.1746 10.0511 82.3734 10.4099C81.6107 10.7508 80.9192 11.2467 80.3382 11.8695C79.76 12.4884 79.2974 13.2165 78.9746 14.0159C78.647 14.868 78.4811 15.7796 78.4862 16.699C78.4803 17.6321 78.6569 18.5565 79.0052 19.4143C79.3345 20.2231 79.8157 20.9533 80.4196 21.5608C81.0369 22.1842 81.7625 22.6762 82.5565 23.0097C83.3987 23.3746 84.3019 23.5571 85.2124 23.5463C86.1323 23.5584 87.0476 23.406 87.9192 23.0955ZM84.8537 12.6851C84.1413 12.6728 83.4485 12.9319 82.9025 13.4149C82.3459 13.9248 81.9515 14.6031 81.773 15.3575H87.8785C87.6951 14.6086 87.2971 13.9377 86.7388 13.4364C86.2196 12.9494 85.5483 12.682 84.8537 12.6851ZM109.421 18.062C109.855 16.9004 110.072 15.6615 110.062 14.413L110.031 13.6832C110.026 13.4681 109.859 13.2968 109.655 13.2969H102.064C101.657 13.3027 101.331 13.6518 101.331 14.0803V15.6902C101.331 16.1187 101.657 16.4678 102.064 16.4737H106.307C106.105 17.5415 105.536 18.4931 104.709 19.146C103.834 19.8527 102.759 20.2304 101.657 20.2193C100.926 20.2243 100.202 20.0709 99.5298 19.7685C98.8809 19.4938 98.2947 19.0767 97.8101 18.545C97.3181 18.0216 96.9336 17.3968 96.6806 16.7098C96.4042 15.972 96.2659 15.1848 96.2735 14.3916C96.2668 13.6029 96.4014 12.82 96.6704 12.0841C97.168 10.714 98.17 9.61461 99.4484 9.03611C100.114 8.73616 100.831 8.58627 101.555 8.59608C102.424 8.58876 103.284 8.79064 104.068 9.18636C104.731 9.58503 105.337 10.08 105.869 10.6567C106.013 10.7958 106.234 10.7958 106.378 10.6567L108.261 8.82146C108.33 8.74896 108.368 8.65049 108.368 8.54778C108.368 8.44508 108.33 8.3466 108.261 8.27411C107.448 7.41266 106.515 6.68864 105.493 6.12763C104.256 5.53451 102.913 5.23062 101.555 5.23684C100.361 5.22741 99.1771 5.47197 98.0747 5.95591C95.9537 6.84175 94.2595 8.58989 93.3734 10.807C92.4666 13.1085 92.4666 15.6962 93.3734 17.9977C94.2663 20.2085 95.953 21.9565 98.0645 22.8594C99.1785 23.3401 100.371 23.5845 101.575 23.5785C102.729 23.5885 103.872 23.3474 104.933 22.8702C105.94 22.4328 106.854 21.7869 107.62 20.9705C108.397 20.1369 109.01 19.1481 109.421 18.062ZM111.639 16.6776C111.632 15.7478 111.809 14.8268 112.158 13.973C112.499 13.1684 112.983 12.4398 113.583 11.8265C114.193 11.1965 114.916 10.7004 115.709 10.3669C117.387 9.65088 119.262 9.65088 120.94 10.3669C121.733 10.7004 122.456 11.1965 123.066 11.8265C124.958 13.8251 125.52 16.829 124.491 19.4358C124.155 20.2431 123.671 20.9725 123.066 21.5823C120.406 24.2372 116.243 24.2372 113.583 21.5823C112.979 20.9725 112.494 20.2431 112.158 19.4358C111.801 18.5655 111.62 17.6259 111.629 16.6776H111.639ZM120.777 19.4465C120.14 20.1532 119.249 20.543 118.325 20.5198H118.314C117.393 20.5413 116.506 20.1515 115.872 19.4465C114.529 17.8968 114.529 15.5227 115.872 13.973C116.509 13.26 117.396 12.8557 118.325 12.8557C119.253 12.8557 120.14 13.26 120.777 13.973C122.12 15.5227 122.12 17.8968 120.777 19.4465Z" fill="#0D0D0D"/>
<path fill-rule="evenodd" clip-rule="evenodd" d="M14.1963 4.18642C15.0388 3.20879 15.0388 1.74601 14.1963 0.768385L14.113 0.683464C13.7186 0.247801 13.1634 0 12.5818 0C12.0001 0 11.445 0.247801 11.0506 0.683464L0.634171 12.2963C-0.21139 13.2687 -0.21139 14.7313 0.634171 15.7037L11.0506 27.3165C11.445 27.7522 12.0001 28 12.5818 28C13.1634 28 13.7186 27.7522 14.113 27.3165L14.1963 27.221C15.0419 26.2486 15.0419 24.786 14.1963 23.8136L5.39447 14.0053L14.1963 4.18642Z" fill="#268AFF"/>
<path fill-rule="evenodd" clip-rule="evenodd" d="M3.45839 4.18642C2.61597 3.20879 2.61597 1.74601 3.45839 0.768385L3.54172 0.683464C3.93612 0.247801 4.49128 0 5.07293 0C5.65458 0 6.20975 0.247801 6.60415 0.683464L17.0206 12.2963C17.8661 13.2687 17.8661 14.7313 17.0206 15.7037L6.60415 27.3165C6.20975 27.7522 5.65458 28 5.07293 28C4.49128 28 3.93612 27.7522 3.54172 27.3165L3.45839 27.221C2.61283 26.2486 2.61283 24.786 3.45839 23.8136L12.2603 14.0053L3.45839 4.18642Z" fill="#50E3C2"/>
</svg>
