<svg width="36" height="36" viewBox="0 0 36 36" fill="none" xmlns="http://www.w3.org/2000/svg">
<rect width="36" height="36" rx="18" fill="#5EA3F5"/>
<path d="M25.7188 11.9375H11.2813C10.9332 11.9375 10.5994 12.0758 10.3532 12.3219C10.1071 12.5681 9.96882 12.9019 9.96882 13.25V26.2766C9.96621 26.5276 10.037 26.7739 10.1726 26.9853C10.3081 27.1966 10.5025 27.3637 10.7317 27.466C10.9573 27.5713 11.2083 27.6102 11.4552 27.5783C11.7021 27.5463 11.9349 27.4448 12.1262 27.2855L14.7266 25.0953L25.7188 25.0625C26.0669 25.0625 26.4008 24.9242 26.6469 24.6781C26.893 24.4319 27.0313 24.0981 27.0313 23.75V13.25C27.0313 12.9019 26.893 12.5681 26.6469 12.3219C26.4008 12.0758 26.0669 11.9375 25.7188 11.9375ZM21.1251 20.4688H15.8751C15.701 20.4688 15.5341 20.3996 15.411 20.2765C15.288 20.1535 15.2188 19.9865 15.2188 19.8125C15.2188 19.6385 15.288 19.4715 15.411 19.3485C15.5341 19.2254 15.701 19.1562 15.8751 19.1562H21.1251C21.2991 19.1562 21.466 19.2254 21.5891 19.3485C21.7122 19.4715 21.7813 19.6385 21.7813 19.8125C21.7813 19.9865 21.7122 20.1535 21.5891 20.2765C21.466 20.3996 21.2991 20.4688 21.1251 20.4688ZM21.1251 17.8438H15.8751C15.701 17.8438 15.5341 17.7746 15.411 17.6515C15.288 17.5285 15.2188 17.3615 15.2188 17.1875C15.2188 17.0135 15.288 16.8465 15.411 16.7235C15.5341 16.6004 15.701 16.5312 15.8751 16.5312H21.1251C21.2991 16.5312 21.466 16.6004 21.5891 16.7235C21.7122 16.8465 21.7813 17.0135 21.7813 17.1875C21.7813 17.3615 21.7122 17.5285 21.5891 17.6515C21.466 17.7746 21.2991 17.8438 21.1251 17.8438Z" fill="white"/>
</svg>
