<svg xmlns="http://www.w3.org/2000/svg" width="24" height="24" viewBox="0 0 24 24">
    <g fill="none" fill-rule="evenodd">
        <g>
            <g>
                <path fill="#FFF" fill-rule="nonzero" d="M19.636 13.583V19H16.5v-5.054c0-1.27-.453-2.136-1.59-2.136-.866 0-1.381.584-1.609 1.148-.083.202-.104.483-.104.766V19h-3.138s.042-8.56 0-9.447h3.138v1.34c-.006.01-.015.02-.02.03h.02v-.03c.417-.643 1.161-1.561 2.828-1.561 2.065 0 3.612 1.35 3.612 4.25zM6.776 5C5.702 5 5 5.705 5 6.632c0 .907.682 1.632 1.734 1.632h.02c1.095 0 1.776-.725 1.776-1.632C8.509 5.705 7.85 5 6.776 5zm-1.59 14h3.137V9.553H5.186V19z" transform="translate(-1164.000000, -15340.000000) translate(1164.000000, 15340.000000)"/>
            </g>
        </g>
    </g>
</svg>
