<svg width="40" height="40" viewBox="0 0 40 40" fill="none" xmlns="http://www.w3.org/2000/svg">
<path d="M20 40C31.0457 40 40 31.0457 40 20C40 8.95431 31.0457 0 20 0C8.95431 0 0 8.95431 0 20C0 31.0457 8.95431 40 20 40Z" fill="#AD78ED"/>
<path d="M39.5 20C39.5 30.7696 30.7696 39.5 20 39.5C9.23045 39.5 0.5 30.7696 0.5 20C0.5 9.23045 9.23045 0.5 20 0.5C30.7696 0.5 39.5 9.23045 39.5 20Z" stroke="#FBFBFB" stroke-opacity="0.5"/>
<path fill-rule="evenodd" clip-rule="evenodd" d="M20.0419 16.7245L13.9759 12.0096L23.0909 12.8268L20.0419 16.7245ZM21.0619 18.9984L19.8072 26.7161L27.2677 18.3373L21.0619 18.9984ZM18.9557 30.6192C18.9848 30.5928 19.0124 30.5647 19.0383 30.5349L30.4267 17.7446C30.6347 17.5111 30.7119 17.2037 30.6595 16.9154C30.6213 16.7021 30.5167 16.5155 30.3689 16.3757L25.726 11.373C25.6839 11.3236 25.6362 11.2776 25.583 11.2359C25.4275 11.1144 25.2469 11.0471 25.0639 11.0311L10.864 9.75801C10.528 9.71229 10.1777 9.84186 9.95461 10.1287C9.81532 10.3083 9.7479 10.521 9.74805 10.7319C9.74797 10.8371 9.76481 10.9428 9.79912 11.0448C9.80581 11.0648 9.81316 11.0846 9.82115 11.1042L17.3785 30.2431C17.4998 30.5585 17.7809 30.8028 18.1386 30.8609C18.1921 30.8697 18.2452 30.8737 18.2973 30.8737C18.4987 30.8737 18.6901 30.8115 18.8494 30.7029C18.8865 30.6776 18.922 30.6497 18.9557 30.6192ZM17.8992 26.21L19.149 18.5191L12.9639 13.7121L17.8992 26.21ZM25.0415 13.5229L27.6387 16.3214L22.4169 16.8778L25.0415 13.5229Z" fill="white"/>
</svg>
