<svg width="36" height="36" viewBox="0 0 36 36" fill="none" xmlns="http://www.w3.org/2000/svg">
<circle cx="18" cy="18" r="18" fill="#E6F1FE"/>
<g opacity="0.503202">
<mask id="mask0_252_3649" style="mask-type:alpha" maskUnits="userSpaceOnUse" x="23" y="0" width="13" height="13">
<circle cx="29.5" cy="6.5" r="6.5" fill="white"/>
</mask>
<g mask="url(#mask0_252_3649)">
<path d="M33.8467 1.035L34.0411 1.24344C34.0963 1.19189 34.1289 1.12049 34.1315 1.04495C34.1342 0.969408 34.1067 0.895912 34.0551 0.840632L33.8467 1.035ZM33.8466 1.03508L33.6522 0.826649C33.5969 0.878199 33.5644 0.949597 33.5618 1.02514C33.5591 1.10068 33.5866 1.17417 33.6382 1.22945L33.8466 1.03508ZM25.6627 -7.74124L25.8711 -7.93561C25.8196 -7.99089 25.7482 -8.02343 25.6727 -8.02607C25.5971 -8.02871 25.5236 -8.00123 25.4683 -7.94968L25.6627 -7.74124ZM12.9284 4.13366L12.7341 3.92523C12.6189 4.03257 12.6126 4.21292 12.72 4.32803L12.9284 4.13366ZM13.4682 4.71249L13.6626 4.92093C13.7777 4.81358 13.784 4.63324 13.6766 4.51812L13.4682 4.71249ZM13.4675 4.71315L13.2731 4.50472C13.158 4.61207 13.1517 4.79241 13.2591 4.90752L13.4675 4.71315ZM13.9976 5.28167L14.192 5.49011C14.3071 5.38276 14.3134 5.20242 14.2061 5.0873L13.9976 5.28167ZM13.9972 5.2821L13.8028 5.07366C13.7475 5.12521 13.715 5.19661 13.7124 5.27215C13.7097 5.34769 13.7372 5.42119 13.7887 5.47647L13.9972 5.2821ZM18.2394 9.8313L18.4338 10.0397C18.489 9.98819 18.5216 9.91679 18.5242 9.84125C18.5268 9.76571 18.4994 9.69222 18.4478 9.63693L18.2394 9.8313ZM18.2394 9.83132L18.045 9.62288C17.9897 9.67443 17.9572 9.74583 17.9545 9.82137C17.9519 9.89691 17.9794 9.97041 18.0309 10.0257L18.2394 9.83132ZM26.4233 18.6076L26.2149 18.8019C26.3223 18.917 26.5026 18.9233 26.6177 18.816L26.4233 18.6076ZM26.4237 18.6073L26.6321 18.4129C26.5248 18.2978 26.3444 18.2915 26.2293 18.3988L26.4237 18.6073ZM28.5456 20.8828L28.3372 21.0771C28.4445 21.1922 28.6249 21.1985 28.74 21.0912L28.5456 20.8828ZM28.5458 20.8826L28.7542 20.6882C28.7027 20.633 28.6313 20.6004 28.5557 20.5978C28.4802 20.5951 28.4067 20.6226 28.3514 20.6742L28.5458 20.8826ZM29.0765 21.4517L28.868 21.6461C28.9196 21.7014 28.991 21.7339 29.0665 21.7365C29.1421 21.7392 29.2156 21.7117 29.2708 21.6601L29.0765 21.4517ZM29.0773 21.451L29.2857 21.2566C29.2341 21.2013 29.1627 21.1688 29.0872 21.1661C29.0117 21.1635 28.9382 21.191 28.8829 21.2425L29.0773 21.451ZM30.6691 23.158L30.4606 23.3523C30.568 23.4674 30.7483 23.4737 30.8634 23.3664L30.6691 23.158ZM43.4033 11.283L43.5977 11.4915C43.653 11.4399 43.6855 11.3685 43.6882 11.293C43.6908 11.2175 43.6633 11.144 43.6118 11.0887L43.4033 11.283ZM42.8723 10.7136L42.678 10.5052C42.5629 10.6125 42.5566 10.7929 42.6639 10.908L42.8723 10.7136ZM42.8725 10.7135L43.0668 10.922C43.182 10.8146 43.1882 10.6343 43.0809 10.5191L42.8725 10.7135ZM42.3426 10.1453L42.1482 9.93688C42.093 9.98843 42.0604 10.0598 42.0578 10.1354C42.0551 10.2109 42.0826 10.2844 42.1342 10.3397L42.3426 10.1453ZM42.3428 10.1452L42.5372 10.3536C42.5924 10.302 42.625 10.2306 42.6276 10.1551C42.6302 10.0796 42.6028 10.0061 42.5512 9.95079L42.3428 10.1452ZM34.1588 1.36891L34.3672 1.17454C34.2599 1.05943 34.0795 1.05313 33.9644 1.16048L34.1588 1.36891ZM34.1583 1.36936L33.9499 1.56373C34.0572 1.67885 34.2376 1.68515 34.3527 1.5778L34.1583 1.36936ZM33.6523 0.826566L33.6522 0.826649L34.041 1.24352L34.0411 1.24344L33.6523 0.826566ZM25.4543 -7.54687L33.6383 1.22937L34.0551 0.840632L25.8711 -7.93561L25.4543 -7.54687ZM13.1228 4.3421L25.8571 -7.53281L25.4683 -7.94968L12.7341 3.92523L13.1228 4.3421ZM13.6766 4.51812L13.1369 3.93929L12.72 4.32803L13.2598 4.90686L13.6766 4.51812ZM13.6619 4.92159L13.6626 4.92093L13.2738 4.50406L13.2731 4.50472L13.6619 4.92159ZM14.2061 5.0873L13.6759 4.51878L13.2591 4.90752L13.7892 5.47604L14.2061 5.0873ZM14.1915 5.49054L14.192 5.49011L13.8033 5.07323L13.8028 5.07366L14.1915 5.49054ZM18.4478 9.63693L14.2056 5.08773L13.7887 5.47647L18.0309 10.0257L18.4478 9.63693ZM18.4337 10.0398L18.4338 10.0397L18.045 9.62287L18.045 9.62288L18.4337 10.0398ZM26.6318 18.4132L18.4478 9.63695L18.0309 10.0257L26.2149 18.8019L26.6318 18.4132ZM26.2293 18.3988L26.229 18.3991L26.6177 18.816L26.618 18.8157L26.2293 18.3988ZM28.754 20.6884L26.6321 18.4129L26.2152 18.8016L28.3372 21.0771L28.754 20.6884ZM28.3514 20.6742L28.3512 20.6743L28.74 21.0912L28.7401 21.091L28.3514 20.6742ZM29.2849 21.2573L28.7542 20.6882L28.3373 21.077L28.868 21.6461L29.2849 21.2573ZM28.8829 21.2425L28.8821 21.2433L29.2708 21.6601L29.2716 21.6594L28.8829 21.2425ZM30.8775 22.9636L29.2857 21.2566L28.8688 21.6453L30.4606 23.3523L30.8775 22.9636ZM43.209 11.0746L30.4747 22.9495L30.8634 23.3664L43.5977 11.4915L43.209 11.0746ZM42.6639 10.908L43.1949 11.4774L43.6118 11.0887L43.0808 10.5193L42.6639 10.908ZM42.6781 10.5051L42.678 10.5052L43.0667 10.9221L43.0668 10.922L42.6781 10.5051ZM42.1342 10.3397L42.664 10.9079L43.0809 10.5191L42.551 9.95095L42.1342 10.3397ZM42.1484 9.93672L42.1482 9.93688L42.537 10.3538L42.5372 10.3536L42.1484 9.93672ZM33.9504 1.56328L42.1343 10.3395L42.5512 9.95079L34.3672 1.17454L33.9504 1.56328ZM34.3527 1.5778L34.3532 1.57735L33.9644 1.16048L33.9639 1.16093L34.3527 1.5778ZM33.6382 1.22945L33.9499 1.56373L34.3668 1.17499L34.055 0.840715L33.6382 1.22945Z" fill="#268AFF"/>
</g>
</g>
<path d="M16.1667 17.0833C16.8919 17.0833 17.6008 16.8683 18.2038 16.4654C18.8067 16.0625 19.2767 15.4898 19.5542 14.8198C19.8317 14.1498 19.9044 13.4126 19.7629 12.7013C19.6214 11.9901 19.2722 11.3367 18.7594 10.8239C18.2466 10.3112 17.5933 9.96193 16.882 9.82046C16.1707 9.67898 15.4335 9.75159 14.7635 10.0291C14.0935 10.3066 13.5208 10.7766 13.1179 11.3796C12.715 11.9826 12.5 12.6915 12.5 13.4167C12.5 14.3891 12.8863 15.3218 13.5739 16.0094C14.2616 16.697 15.1942 17.0833 16.1667 17.0833ZM21.6667 26.25C21.9098 26.25 22.1429 26.1534 22.3148 25.9815C22.4868 25.8096 22.5833 25.5764 22.5833 25.3333C22.5833 23.6315 21.9073 21.9994 20.7039 20.7961C19.5006 19.5927 17.8685 18.9167 16.1667 18.9167C14.4649 18.9167 12.8328 19.5927 11.6294 20.7961C10.426 21.9994 9.75 23.6315 9.75 25.3333C9.75 25.5764 9.84658 25.8096 10.0185 25.9815C10.1904 26.1534 10.4236 26.25 10.6667 26.25" fill="#407BFF"/>
<path d="M27.8999 13.0498C27.8999 13.2321 27.8275 13.407 27.6985 13.5359C27.5696 13.6649 27.3947 13.7373 27.2124 13.7373H25.8374V15.1123C25.8374 15.2946 25.765 15.4695 25.636 15.5984C25.5071 15.7274 25.3322 15.7998 25.1499 15.7998C24.9676 15.7998 24.7927 15.7274 24.6638 15.5984C24.5348 15.4695 24.4624 15.2946 24.4624 15.1123V13.7373H23.0874C22.9051 13.7373 22.7302 13.6649 22.6013 13.5359C22.4723 13.407 22.3999 13.2321 22.3999 13.0498C22.3999 12.8675 22.4723 12.6926 22.6013 12.5637C22.7302 12.4347 22.9051 12.3623 23.0874 12.3623H24.4624V10.9873C24.4624 10.805 24.5348 10.6301 24.6638 10.5012C24.7927 10.3722 24.9676 10.2998 25.1499 10.2998C25.3322 10.2998 25.5071 10.3722 25.636 10.5012C25.765 10.6301 25.8374 10.805 25.8374 10.9873V12.3623H27.2124C27.3947 12.3623 27.5696 12.4347 27.6985 12.5637C27.8275 12.6926 27.8999 12.8675 27.8999 13.0498Z" fill="#407BFF"/>
</svg>
