<svg width="36" height="36" viewBox="0 0 36 36" fill="none" xmlns="http://www.w3.org/2000/svg">
<path d="M18 36C27.9411 36 36 27.9411 36 18C36 8.05887 27.9411 0 18 0C8.05887 0 0 8.05887 0 18C0 27.9411 8.05887 36 18 36Z" fill="#25D366"/>
<path fill-rule="evenodd" clip-rule="evenodd" d="M18.5931 28.014H18.5887C16.7973 28.0134 15.0372 27.5639 13.4738 26.7112L7.7998 28.1996L9.31827 22.6532C8.3816 21.03 7.88874 19.1887 7.88954 17.3023C7.89189 11.4009 12.6934 6.59961 18.593 6.59961C21.4563 6.60085 24.1437 7.71551 26.1645 9.73867C28.1853 11.7617 29.2975 14.4509 29.2964 17.3107C29.294 23.2108 24.4944 28.0116 18.5931 28.014ZM13.7367 24.7735L14.0616 24.9663C15.4274 25.7769 16.9932 26.2057 18.5895 26.2064H18.5931C23.4964 26.2064 27.4872 22.2155 27.4892 17.3101C27.4901 14.933 26.5657 12.6979 24.8861 11.0163C23.2064 9.33478 20.9728 8.40826 18.5966 8.40744C13.6895 8.40744 9.69863 12.3979 9.69669 17.3029C9.696 18.9839 10.1663 20.6209 11.0569 22.0373L11.2684 22.3739L10.3697 25.6568L13.7367 24.7735ZM23.6191 19.6152C23.8056 19.7053 23.9316 19.7662 23.9854 19.856C24.0522 19.9675 24.0522 20.5029 23.8295 21.1277C23.6065 21.7524 22.5381 22.3226 22.0242 22.3994C21.5635 22.4682 20.9804 22.497 20.3398 22.2934C19.9513 22.1701 19.4532 22.0056 18.8151 21.73C16.3079 20.6474 14.6136 18.2174 14.2933 17.7581C14.2709 17.726 14.2552 17.7035 14.2465 17.6918L14.2443 17.6889C14.1028 17.5 13.1544 16.2347 13.1544 14.9252C13.1544 13.6933 13.7596 13.0476 14.0381 12.7504C14.0572 12.73 14.0747 12.7113 14.0905 12.6941C14.3356 12.4264 14.6254 12.3594 14.8036 12.3594C14.9819 12.3594 15.1604 12.3611 15.3162 12.3689C15.3354 12.3699 15.3554 12.3697 15.3761 12.3696C15.532 12.3687 15.7263 12.3676 15.9179 12.828C15.9917 13.0052 16.0996 13.2678 16.2134 13.5449C16.4435 14.1052 16.6978 14.7242 16.7425 14.8138C16.8094 14.9476 16.8539 15.1038 16.7648 15.2823C16.7514 15.3091 16.739 15.3344 16.7272 15.3585C16.6603 15.4952 16.611 15.5958 16.4974 15.7284C16.4527 15.7806 16.4065 15.8369 16.3603 15.8931C16.2683 16.0052 16.1763 16.1172 16.0962 16.197C15.9623 16.3304 15.8229 16.475 15.9789 16.7428C16.1349 17.0105 16.6717 17.8863 17.4667 18.5955C18.3214 19.3578 19.0642 19.68 19.4407 19.8433C19.5142 19.8752 19.5738 19.901 19.6175 19.9229C19.8848 20.0568 20.0408 20.0344 20.1968 19.856C20.3528 19.6775 20.8654 19.075 21.0436 18.8073C21.2219 18.5397 21.4003 18.5842 21.6454 18.6734C21.8906 18.7628 23.2054 19.4097 23.4729 19.5436C23.5251 19.5697 23.5739 19.5933 23.6191 19.6152Z" fill="#FDFDFD"/>
</svg>
