<svg width="24" height="24" viewBox="0 0 24 24" fill="none" xmlns="http://www.w3.org/2000/svg">
<path fill-rule="evenodd" clip-rule="evenodd" d="M0 12C0 5.38293 5.38293 0 12 0C18.6171 0 24 5.38293 24 12C24 18.6171 18.6171 24 12 24C5.38293 24 0 18.6171 0 12ZM11.5818 15.9568L18.0819 9.45689C18.4728 9.06577 18.4728 8.43387 18.0819 8.04294C17.6908 7.65183 17.0589 7.65183 16.6679 8.04294L10.8749 13.8359L8.33189 11.2929C7.94077 10.9018 7.30887 10.9018 6.91794 11.2929C6.52683 11.6838 6.52683 12.3159 6.91794 12.7068L10.1679 15.9568C10.3629 16.1518 10.6189 16.2499 10.8749 16.2499C11.1308 16.2499 11.3868 16.1518 11.5818 15.9568Z" fill="#0D0D0D"/>
</svg>
