<svg width="24" height="24" viewBox="0 0 24 24" fill="none" xmlns="http://www.w3.org/2000/svg">
<path d="M19.2813 11.9687C19.2845 13.6277 18.718 15.2375 17.6766 16.5289L7.4086 6.26094C8.69996 5.21947 10.3098 4.65299 11.9688 4.65625C13.9073 4.65894 15.7657 5.43022 17.1365 6.801C18.5073 8.17178 19.2786 10.0302 19.2813 11.9687ZM4.65625 11.9687C4.65894 13.9073 5.43023 15.7657 6.801 17.1365C8.17178 18.5073 10.0302 19.2786 11.9688 19.2812C13.6277 19.2845 15.2375 18.718 16.5289 17.6766L6.26094 7.40859C5.21948 8.69995 4.653 10.3098 4.65625 11.9687ZM22.9375 11.9687C22.9375 14.1382 22.2942 16.2589 21.0889 18.0627C19.8837 19.8665 18.1706 21.2724 16.1663 22.1026C14.162 22.9328 11.9566 23.15 9.82886 22.7267C7.70113 22.3035 5.74668 21.2588 4.21268 19.7248C2.67867 18.1908 1.634 16.2364 1.21077 14.1086C0.787535 11.9809 1.00475 9.77547 1.83495 7.77119C2.66515 5.76691 4.07104 4.05383 5.87484 2.84857C7.67865 1.64331 9.79934 1 11.9688 1C14.877 1.00269 17.6654 2.15919 19.7219 4.21564C21.7783 6.2721 22.9348 9.06048 22.9375 11.9687ZM20.9063 11.9687C20.9063 10.2011 20.3821 8.4731 19.4 7.00334C18.4179 5.53358 17.0221 4.38803 15.389 3.71158C13.7559 3.03512 11.9588 2.85813 10.2251 3.20298C8.49143 3.54784 6.89892 4.39905 5.64899 5.64898C4.39906 6.89891 3.54784 8.49142 3.20299 10.2251C2.85813 11.9588 3.03512 13.7559 3.71158 15.389C4.38804 17.0221 5.53358 18.4179 7.00335 19.4C8.47311 20.3821 10.2011 20.9062 11.9688 20.9062C14.3383 20.9036 16.61 19.9611 18.2856 18.2855C19.9611 16.61 20.9036 14.3383 20.9063 11.9687Z" fill="#B6B6B6"/>
</svg>
