<svg width="26" height="26" viewBox="0 0 26 26" fill="none" xmlns="http://www.w3.org/2000/svg">
<rect opacity="0.01" x="1" y="1" width="24" height="24" fill="#D8D8D8" stroke="#979797"/>
<path fill-rule="evenodd" clip-rule="evenodd" d="M10.7639 4.73589H11.3889H15.1389H15.7639C16.1091 4.73589 16.3889 5.0157 16.3889 5.36089V5.98589H17.0139C17.7043 5.98589 18.2639 6.54554 18.2639 7.23589V20.0137C18.2639 20.704 17.7043 21.2637 17.0139 21.2637H9.51392C8.82356 21.2637 8.26392 20.704 8.26392 20.0137V7.23589C8.26392 6.54554 8.82356 5.98589 9.51392 5.98589H10.1389V5.36089C10.1389 5.0157 10.4187 4.73589 10.7639 4.73589ZM17.0139 7.23589H10.7639H9.51392V12.2359H17.0139V7.23589Z" fill="#B6B6B6"/>
</svg>
