<svg width="15" height="15" viewBox="0 0 15 15" fill="none" xmlns="http://www.w3.org/2000/svg">
<path d="M12.4027 7.24079C12.4044 7.92516 12.2445 8.60028 11.936 9.21116C11.5701 9.94317 11.0077 10.5589 10.3117 10.9893C9.6157 11.4197 8.8136 11.6479 7.99525 11.6482C7.31088 11.65 6.63576 11.4901 6.02489 11.1815L3.06934 12.1667L4.05452 9.21116C3.74597 8.60028 3.58607 7.92516 3.58785 7.24079C3.58817 6.42244 3.81632 5.62034 4.24674 4.92434C4.67717 4.22833 5.29287 3.6659 6.02489 3.30005C6.63576 2.9915 7.31088 2.8316 7.99525 2.83339H8.25451C9.33528 2.89301 10.3561 3.34919 11.1215 4.11457C11.8869 4.87996 12.343 5.90076 12.4027 6.98153V7.24079Z" stroke="#666666" stroke-width="1.3" stroke-linecap="round" stroke-linejoin="round"/>
</svg>
