<svg width="16" height="16" viewBox="0 0 16 16" fill="none" xmlns="http://www.w3.org/2000/svg">
<path d="M8.97106 7.99991L14.6773 2.30226C14.7869 2.16868 14.843 1.9991 14.8345 1.8265C14.826 1.6539 14.7536 1.49063 14.6314 1.36843C14.5092 1.24624 14.346 1.17387 14.1734 1.16539C14.0008 1.15691 13.8312 1.21294 13.6976 1.32257L7.99996 7.02882L2.3023 1.32257C2.16873 1.21294 1.99915 1.15691 1.82655 1.16539C1.65395 1.17387 1.49067 1.24624 1.36848 1.36843C1.24629 1.49063 1.17391 1.6539 1.16544 1.8265C1.15696 1.9991 1.21299 2.16868 1.32262 2.30226L7.02887 7.99991L1.32262 13.6976C1.19352 13.8279 1.12109 14.004 1.12109 14.1874C1.12109 14.3709 1.19352 14.5469 1.32262 14.6773C1.45403 14.8043 1.62967 14.8754 1.81246 14.8754C1.99525 14.8754 2.1709 14.8043 2.3023 14.6773L7.99996 8.97101L13.6976 14.6773C13.829 14.8043 14.0047 14.8754 14.1875 14.8754C14.3703 14.8754 14.5459 14.8043 14.6773 14.6773C14.8064 14.5469 14.8788 14.3709 14.8788 14.1874C14.8788 14.004 14.8064 13.8279 14.6773 13.6976L8.97106 7.99991Z" fill="#0D0D0D" stroke="#0D0D0D" stroke-width="0.5"/>
</svg>
