<svg width="30" height="30" viewBox="0 0 30 30" fill="none" xmlns="http://www.w3.org/2000/svg">
<path d="M14.9998 29C22.7317 29 28.9998 22.732 28.9998 15C28.9998 7.26801 22.7317 1 14.9998 1C7.26777 1 0.999756 7.26801 0.999756 15C0.999756 22.732 7.26777 29 14.9998 29Z" fill="#DCC4F7"/>
<path d="M15.0001 27.3083C21.7977 27.3083 27.3083 21.7977 27.3083 15.0001C27.3083 8.20246 21.7977 2.69189 15.0001 2.69189C8.20246 2.69189 2.69189 8.20246 2.69189 15.0001C2.69189 21.7977 8.20246 27.3083 15.0001 27.3083Z" fill="#AD78ED"/>
<path d="M14.0482 22.3848C14.0101 22.3848 13.9717 22.3815 13.9333 22.3746C13.7088 22.3349 13.5214 22.1816 13.4374 21.9696L8.38282 9.16906C8.29912 8.95736 8.33128 8.71743 8.46782 8.53494C8.60403 8.35245 8.82493 8.253 9.05205 8.27434L18.5704 9.1277C18.7319 9.14215 18.8825 9.21632 18.9928 9.33514L22.1437 12.7302C22.3738 12.978 22.3781 13.3604 22.1529 13.6131L14.5382 22.1652C14.4129 22.306 14.234 22.3848 14.0482 22.3848ZM9.99503 9.67681L14.2671 20.4952L20.7757 13.1855L18.2025 10.4127L9.99503 9.67681Z" fill="white"/>
<path d="M15.3284 14.5075C15.1833 14.5075 15.0412 14.4592 14.9253 14.3693L8.5907 9.44599C8.3045 9.22346 8.25297 8.81122 8.47517 8.52468C8.6977 8.23847 9.10995 8.18662 9.39648 8.40915L15.522 13.1703L21.5934 12.5234C21.959 12.4856 22.2771 12.7462 22.3155 13.1066C22.3539 13.4673 22.093 13.7903 21.7326 13.829L15.398 14.5038C15.375 14.5061 15.3513 14.5075 15.3284 14.5075Z" fill="white"/>
<path d="M14.0493 22.3849C14.0145 22.3849 13.9791 22.3823 13.9433 22.3764C13.5855 22.3183 13.3423 21.9812 13.4008 21.6234L14.6808 13.7462C14.6985 13.6369 14.7435 13.5341 14.8118 13.4468L17.9955 9.37693C18.219 9.09138 18.6316 9.04116 18.9171 9.26435C19.2027 9.48787 19.2529 9.90044 19.0297 10.186L15.9497 14.123L14.6962 21.8335C14.644 22.1561 14.3654 22.3849 14.0493 22.3849Z" fill="white"/>
</svg>
