<svg width="11" height="11" viewBox="0 0 11 11" fill="none" xmlns="http://www.w3.org/2000/svg">
<path id="Path Copy" opacity="0.54" d="M10.4682 0.533843C10.1275 0.191974 9.66543 -4.82563e-05 9.18362 7.5317e-06C8.70154 -0.00138717 8.23901 0.19097 7.89929 0.53415L1.64976 6.80428C1.59791 6.85669 1.5588 6.9204 1.53542 6.99041L0.586519 9.84676C0.503703 10.0962 0.638116 10.3658 0.886732 10.4488C0.934965 10.465 0.985477 10.4732 1.0363 10.4733C1.08723 10.4732 1.13785 10.465 1.18622 10.449L4.03294 9.49688C4.10286 9.47345 4.16638 9.43401 4.21845 9.38168L10.468 3.11105C11.1773 2.39942 11.1774 1.24556 10.4682 0.533843Z" fill="#0D0D0D"/>
</svg>
