<svg width="18" height="18" viewBox="0 0 18 18" fill="none" xmlns="http://www.w3.org/2000/svg">
<path fill-rule="evenodd" clip-rule="evenodd" d="M6.70158 1.18281C7.82802 -0.394269 10.1719 -0.394269 11.2984 1.18281L11.4778 1.43388C11.676 1.71144 12.0089 1.86006 12.3479 1.8224L13.1472 1.73357C14.9462 1.53369 16.4663 3.05377 16.2664 4.85276L16.1777 5.65213C16.14 5.99112 16.2886 6.32398 16.5661 6.52224L16.8172 6.70158C18.3943 7.82802 18.3943 10.1719 16.8172 11.2984L16.5661 11.4778C16.2886 11.676 16.14 12.0089 16.1777 12.3479L16.2664 13.1472C16.4663 14.9462 14.9462 16.4663 13.1472 16.2664L12.3479 16.1777C12.0089 16.14 11.676 16.2886 11.4778 16.5661L11.2984 16.8172C10.1719 18.3943 7.82811 18.3943 6.70158 16.8172L6.52224 16.5661C6.32398 16.2886 5.99112 16.14 5.65212 16.1777L4.85276 16.2664C3.05377 16.4663 1.53369 14.9462 1.73357 13.1472L1.8224 12.3479C1.86006 12.0089 1.71144 11.676 1.43388 11.4778L1.18281 11.2984C-0.394269 10.1719 -0.394269 7.82811 1.18281 6.70158L1.43388 6.52224C1.71144 6.32398 1.86006 5.99112 1.8224 5.65212L1.73357 4.85276C1.53369 3.05377 3.05377 1.53369 4.85276 1.73357L5.65213 1.8224C5.99112 1.86006 6.32398 1.71144 6.52224 1.43388L6.70158 1.18281ZM12.4903 6.45123C12.858 6.81892 12.858 7.41507 12.4903 7.78273L8.89475 11.3783C8.43294 11.8402 7.68406 11.8402 7.22225 11.3783L5.50972 9.66576C5.14204 9.2981 5.14204 8.70193 5.50972 8.33427C5.87741 7.96661 6.47354 7.96661 6.84123 8.33427L8.0585 9.55155L11.1588 6.45123C11.5265 6.08355 12.1226 6.08355 12.4903 6.45123Z" fill="#00B746"/>
</svg>
