<svg width="24" height="24" viewBox="0 0 24 24" fill="none" xmlns="http://www.w3.org/2000/svg">
<path fill-rule="evenodd" clip-rule="evenodd" d="M2.72 3H21.64C22.0962 3 22.5337 3.18121 22.8562 3.50378C23.1788 3.82634 23.36 4.26383 23.36 4.72V20.2C23.36 20.6562 23.1788 21.0937 22.8562 21.4162C22.5337 21.7388 22.0962 21.92 21.64 21.92H2.72C2.26383 21.92 1.82634 21.7388 1.50378 21.4162C1.18121 21.0937 1 20.6562 1 20.2V4.72C1 4.26383 1.18121 3.82634 1.50378 3.50378C1.82634 3.18121 2.26383 3 2.72 3ZM11.5325 17.6092C11.6447 17.6242 11.7588 17.6169 11.8682 17.5878C11.9774 17.5602 12.0799 17.5113 12.17 17.4438C12.26 17.3763 12.3357 17.2916 12.3927 17.1945C12.4498 17.0975 12.4869 16.9901 12.5021 16.8786C12.5172 16.7671 12.5101 16.6537 12.481 16.545C12.2192 15.5284 11.5964 14.6419 10.7287 14.051C11.2167 13.5727 11.5512 12.9599 11.6895 12.2907C11.8279 11.6216 11.7638 10.9264 11.5054 10.2938C11.2471 9.66124 10.8062 9.11992 10.2391 8.73888C9.67187 8.35784 9.00405 8.15435 8.32075 8.15435C7.63745 8.15435 6.96963 8.35784 6.40244 8.73888C5.83525 9.11992 5.39439 9.66124 5.13606 10.2938C4.87773 10.9264 4.81365 11.6216 4.95198 12.2907C5.0903 12.9599 5.42478 13.5727 5.91275 14.051C5.04515 14.6419 4.42229 15.5284 4.1605 16.545C4.13144 16.6537 4.12428 16.7671 4.13943 16.8786C4.15458 16.9901 4.19175 17.0975 4.24876 17.1945C4.30577 17.2916 4.3815 17.3763 4.47154 17.4438C4.56158 17.5113 4.66413 17.5602 4.77325 17.5878L4.98825 17.62C5.17944 17.6195 5.36514 17.556 5.51668 17.4394C5.66822 17.3229 5.77718 17.1597 5.82675 16.975C5.97249 16.4248 6.29611 15.9382 6.7472 15.591C7.19829 15.2438 7.75153 15.0556 8.32075 15.0556C8.88997 15.0556 9.44321 15.2438 9.8943 15.591C10.3454 15.9382 10.669 16.4248 10.8148 16.975C10.8435 17.0845 10.8936 17.1873 10.9621 17.2774C11.0307 17.3676 11.1163 17.4433 11.2142 17.5002C11.3121 17.5571 11.4203 17.5942 11.5325 17.6092ZM14.76 15.04H19.06C19.2881 15.04 19.5068 14.9494 19.6681 14.7881C19.8294 14.6268 19.92 14.4081 19.92 14.18C19.92 13.9519 19.8294 13.7332 19.6681 13.5719C19.5068 13.4106 19.2881 13.32 19.06 13.32H14.76C14.5319 13.32 14.3132 13.4106 14.1519 13.5719C13.9906 13.7332 13.9 13.9519 13.9 14.18C13.9 14.4081 13.9906 14.6268 14.1519 14.7881C14.3132 14.9494 14.5319 15.04 14.76 15.04ZM14.76 11.6H19.06C19.2881 11.6 19.5068 11.5094 19.6681 11.3481C19.8294 11.1868 19.92 10.9681 19.92 10.74C19.92 10.5119 19.8294 10.2932 19.6681 10.1319C19.5068 9.97061 19.2881 9.88 19.06 9.88H14.76C14.5319 9.88 14.3132 9.97061 14.1519 10.1319C13.9906 10.2932 13.9 10.5119 13.9 10.74C13.9 10.9681 13.9906 11.1868 14.1519 11.3481C14.3132 11.5094 14.5319 11.6 14.76 11.6ZM10.1416 11.406C10.1416 12.4039 9.33261 13.2129 8.3347 13.2129C7.33679 13.2129 6.52783 12.4039 6.52783 11.406C6.52783 10.4081 7.33679 9.59912 8.3347 9.59912C9.33261 9.59912 10.1416 10.4081 10.1416 11.406Z" fill="#B6B6B6"/>
</svg>
