<svg width="46" height="46" viewBox="0 0 46 46" fill="none" xmlns="http://www.w3.org/2000/svg">
<rect width="46" height="46" rx="10" fill="#FAFAFA"/>
<path d="M23.299 15.6401C21.7564 15.6419 20.2774 16.2517 19.1866 17.3359C18.0958 18.4201 17.4822 19.89 17.4805 21.4232C17.4805 26.3717 22.7701 30.111 22.9949 30.2687C23.085 30.3283 23.1908 30.3601 23.299 30.3601C23.4073 30.3601 23.5131 30.3283 23.6032 30.2687C23.828 30.111 29.1176 26.3717 29.1176 21.4232C29.1158 19.89 28.5023 18.4201 27.4114 17.3359C26.3206 16.2517 24.8417 15.6419 23.299 15.6401ZM23.299 19.3203C23.7175 19.3203 24.1266 19.4436 24.4745 19.6747C24.8225 19.9058 25.0937 20.2342 25.2538 20.6185C25.414 21.0027 25.4559 21.4256 25.3742 21.8335C25.2926 22.2414 25.0911 22.6161 24.7952 22.9102C24.4992 23.2043 24.1222 23.4046 23.7118 23.4858C23.3014 23.5669 22.876 23.5253 22.4893 23.3661C22.1027 23.2069 21.7723 22.9374 21.5398 22.5916C21.3073 22.2457 21.1832 21.8391 21.1832 21.4232C21.1832 20.8655 21.4061 20.3306 21.8029 19.9362C21.8029 19.9362 22.7379 19.3203 23.299 19.3203Z" fill="#0D0D0D"/>
</svg>
