<svg width="24" height="24" viewBox="0 0 24 24" fill="none" xmlns="http://www.w3.org/2000/svg">
<path d="M11.65 3C13.6789 3 15.6247 3.81275 17.0594 5.25946C18.494 6.70617 19.3 8.66833 19.3 10.7143C19.3 13.908 16.886 17.2543 12.16 20.8286C12.0129 20.9398 11.8339 21 11.65 21C11.4661 21 11.2871 20.9398 11.14 20.8286C6.414 17.2543 4 13.908 4 10.7143C4 8.66833 4.80598 6.70617 6.24063 5.25946C7.67529 3.81275 9.62109 3 11.65 3ZM11.65 8.14286C10.9737 8.14286 10.3251 8.41377 9.84688 8.89601C9.36866 9.37825 9.1 10.0323 9.1 10.7143C9.1 11.3963 9.36866 12.0503 9.84688 12.5326C10.3251 13.0148 10.9737 13.2857 11.65 13.2857C12.3263 13.2857 12.9749 13.0148 13.4531 12.5326C13.9313 12.0503 14.2 11.3963 14.2 10.7143C14.2 10.0323 13.9313 9.37825 13.4531 8.89601C12.9749 8.41377 12.3263 8.14286 11.65 8.14286Z" fill="#B6B6B6"/>
</svg>
