<svg width="12" height="12" viewBox="0 0 12 12" fill="none" xmlns="http://www.w3.org/2000/svg">
<path d="M0.632513 3.36405L10.5524 0.0511691C10.7191 -0.00535572 10.899 -0.0152795 11.0713 0.0225415C11.2436 0.0603625 11.4013 0.144389 11.5262 0.264934C11.6511 0.385479 11.7382 0.537636 11.7774 0.703864C11.8166 0.870093 11.8063 1.04363 11.7477 1.20446L8.31415 10.7756C8.25233 10.9545 8.13344 11.1098 7.97451 11.2195C7.81559 11.3292 7.62477 11.3875 7.42939 11.3862H7.41181C7.21403 11.3866 7.02146 11.3251 6.86298 11.2109C6.70451 11.0968 6.58869 10.9361 6.5329 10.753L5.15009 6.42253L0.66181 5.08268C0.471948 5.02826 0.305178 4.91652 0.186003 4.76389C0.0668268 4.61125 0.00152874 4.42576 -0.000299454 4.23467C-0.00452423 4.04347 0.0545607 3.85596 0.168366 3.69939C0.282171 3.54282 0.444765 3.42535 0.632513 3.36405Z" fill="black"/>
</svg>
