<svg width="16" height="20" viewBox="0 0 16 20" fill="none" xmlns="http://www.w3.org/2000/svg">
<path d="M8.00045 0.769043C10.0814 0.769043 12.0771 1.60264 13.5485 3.08644C15.02 4.57024 15.8466 6.58271 15.8466 8.68113C15.8466 11.9567 13.3707 15.3888 8.52353 19.0548C8.37262 19.1689 8.18908 19.2306 8.00045 19.2306C7.81182 19.2306 7.62828 19.1689 7.47737 19.0548C2.63019 15.3888 0.154297 11.9567 0.154297 8.68113C0.154297 6.58271 0.980943 4.57024 2.45238 3.08644C3.92382 1.60264 5.91952 0.769043 8.00045 0.769043ZM8.00045 6.04377C7.30681 6.04377 6.64157 6.32163 6.15109 6.81623C5.66061 7.31083 5.38507 7.98166 5.38507 8.68113C5.38507 9.3806 5.66061 10.0514 6.15109 10.546C6.64157 11.0406 7.30681 11.3185 8.00045 11.3185C8.69409 11.3185 9.35933 11.0406 9.84981 10.546C10.3403 10.0514 10.6158 9.3806 10.6158 8.68113C10.6158 7.98166 10.3403 7.31083 9.84981 6.81623C9.35933 6.32163 8.69409 6.04377 8.00045 6.04377Z" fill="#0D0D0D"/>
</svg>
