<svg width="88" height="42" viewBox="0 0 88 42" fill="none" xmlns="http://www.w3.org/2000/svg">
<rect x="0.5" y="0.5" width="87" height="41" rx="2.5" fill="white" stroke="#E8E8E8"/>
<path fill-rule="evenodd" clip-rule="evenodd" d="M60 9C53.376 9 48 14.376 48 21C48 27.624 53.376 33 60 33C66.624 33 72 27.624 72 21C72 14.376 66.624 9 60 9ZM60 12.6C61.992 12.6 63.6 14.208 63.6 16.2C63.6 18.192 61.992 19.8 60 19.8C58.008 19.8 56.4 18.192 56.4 16.2C56.4 14.208 58.008 12.6 60 12.6ZM52.8 25.776C54.348 28.104 57 29.64 60 29.64C63 29.64 65.652 28.104 67.2 25.776C67.164 23.388 62.388 22.08 60 22.08C57.6 22.08 52.836 23.388 52.8 25.776Z" fill="#0D0D0D"/>
<path fill-rule="evenodd" clip-rule="evenodd" d="M16 26H31V24H16V26ZM16 22H31V20H16V22ZM16 16V18H31V16H16Z" fill="#0D0D0D"/>
</svg>
