<svg width="60" height="18" viewBox="0 0 60 18" fill="none" xmlns="http://www.w3.org/2000/svg">
<path d="M3.46979 0.000323702C1.60585 0.000365862 0.0927738 1.51141 0.0927756 3.37536C0.0927764 4.1665 0.0927771 4.95764 0.0927775 5.74878C0.0927778 6.30195 0.541213 6.75039 1.09439 6.75039C2.21152 6.75039 3.2479 7.51652 3.42736 8.62239C3.48203 8.94531 3.46579 9.2763 3.37976 9.59227C3.29374 9.90825 3.14001 10.2016 2.9293 10.4518C2.71858 10.702 2.45597 10.9031 2.15978 11.0411C1.86359 11.179 1.54096 11.2504 1.2144 11.2504C0.594945 11.2504 0.0927778 11.7526 0.0927778 12.372C0.0927778 13.1231 0.0927778 13.8743 0.0927778 14.6254C0.0927778 16.4894 1.60589 18.0004 3.46985 18.0004C21.8305 18.0004 37.355 18.0004 55.7157 18.0004C57.5797 18.0004 59.0928 16.4894 59.0928 14.6254C59.0928 13.8743 59.0928 13.1231 59.0928 12.372C59.0928 11.7526 58.5906 11.2504 57.9712 11.2504C57.6446 11.2504 57.322 11.179 57.0258 11.0411C56.7296 10.9031 56.467 10.702 56.2563 10.4518C56.0455 10.2016 55.8918 9.90825 55.8058 9.59227C55.7198 9.2763 55.7035 8.94531 55.7582 8.62239C55.9377 7.51652 56.974 6.75039 58.0912 6.75039C58.6443 6.75039 59.0928 6.30195 59.0928 5.74878C59.0928 4.95764 59.0928 4.1665 59.0928 3.37535C59.0928 1.5114 57.5797 0.00036064 55.7158 0.000316222C37.355 -0.000121314 21.8305 -9.15893e-05 3.46979 0.000323702Z" fill="#BB8EF1"/>
</svg>
