<svg width="26" height="26" viewBox="0 0 26 26" fill="none" xmlns="http://www.w3.org/2000/svg">
<rect opacity="0.01" x="1" y="1" width="24" height="24" fill="#D8D8D8" stroke="#979797"/>
<path d="M12.3043 11.9565H9.52167C9.32966 11.9565 9.17383 12.1124 9.17383 12.3044V20.6522C9.17383 20.8442 9.32966 21 9.52167 21H12.3043C12.4963 21 12.6521 20.8442 12.6521 20.6522V12.3044C12.6521 12.1124 12.4963 11.9565 12.3043 11.9565Z" fill="#B6B6B6"/>
<path d="M16.4783 8.47803H13.6957C13.5037 8.47803 13.3479 8.63386 13.3479 8.82587V20.6519C13.3479 20.8439 13.5037 20.9998 13.6957 20.9998H16.4784C16.6704 20.9998 16.8262 20.8439 16.8262 20.6519V8.82587C16.8262 8.63386 16.6703 8.47803 16.4783 8.47803Z" fill="#B6B6B6"/>
<path d="M20.6522 5H17.8696C17.6776 5 17.5217 5.15584 17.5217 5.34784V20.6522C17.5217 20.8442 17.6776 21 17.8696 21H20.6522C20.8442 21 21 20.8442 21 20.6522V5.3478C21 5.1558 20.8442 5 20.6522 5Z" fill="#B6B6B6"/>
<path d="M8.13042 15.4346H5.34784C5.15584 15.4346 5 15.5904 5 15.7824V20.652C5 20.844 5.15584 20.9998 5.34784 20.9998H8.13046C8.32246 20.9998 8.4783 20.844 8.4783 20.652V15.7824C8.47826 15.5904 8.32242 15.4346 8.13042 15.4346Z" fill="#B6B6B6"/>
</svg>
