<svg width="26" height="26" viewBox="0 0 26 26" fill="none" xmlns="http://www.w3.org/2000/svg">
<rect opacity="0.01" x="1" y="1" width="24" height="24" fill="#D8D8D8" stroke="#979797"/>
<path d="M12.9993 4C8.03684 4 4 8.03753 4 13.0003C4 17.9628 8.03684 22 12.9994 22C17.9617 22 21.9993 17.9628 21.9993 13.0003C21.9993 8.03753 17.9616 4 12.9993 4Z" fill="#B6B6B6"/>
<path d="M6.6564 13.0004C6.6564 9.50257 9.50188 6.65664 12.9993 6.65664C16.4974 6.65664 19.3427 9.50258 19.3427 13.0004C19.3427 13.5373 18.9078 13.9727 18.3705 13.9727C17.8335 13.9727 17.398 13.5373 17.398 13.0004C17.398 10.5745 15.4245 8.60131 12.9993 8.60131C10.5739 8.60131 8.60107 10.5745 8.60107 13.0004C8.60107 15.4256 10.5739 17.3988 12.9993 17.3988C13.5366 17.3988 13.9713 17.8341 13.9713 18.3712C13.9713 18.9079 13.5365 19.3435 12.9993 19.3435C9.50187 19.3435 6.6564 16.4978 6.6564 13.0004Z" fill="white" stroke="#B6B6B6" stroke-width="0.2"/>
<path d="M14.2515 13.0542C14.2521 13.0357 14.2568 13.0186 14.2568 13.0001C14.2568 12.3061 13.6943 11.7427 12.9994 11.7427C12.305 11.7427 11.7427 12.3061 11.7427 13.0001C11.7427 13.6947 12.305 14.2575 12.9994 14.2575C13.0224 14.2575 13.0429 14.2519 13.0659 14.2507L16.6797 17.2785C16.8462 17.4188 17.0957 17.4224 17.2663 17.2756C17.4569 17.1126 17.4793 16.826 17.3163 16.6354L14.2515 13.0542Z" fill="white"/>
</svg>
