<svg width="24" height="24" viewBox="0 0 24 24" fill="none" xmlns="http://www.w3.org/2000/svg">
<path d="M7.50004 15C6.60457 14.9988 5.7436 14.6545 5.09431 14.0378C4.44502 13.4211 4.0568 12.579 4.00952 11.6848C3.96225 10.7905 4.25952 9.91221 4.84017 9.2305C5.42082 8.5488 6.24068 8.11558 7.13104 8.02C6.86887 6.99188 7.02586 5.90174 7.56747 4.98937C8.10907 4.07701 8.99093 3.41716 10.019 3.155C11.0472 2.89283 12.1373 3.04982 13.0497 3.59142C13.962 4.13303 14.6219 5.01489 14.884 6.043C15.4955 5.95786 16.1179 5.99944 16.7126 6.16516C17.3073 6.33088 17.8615 6.61719 18.3408 7.00628C18.8201 7.39537 19.2142 7.87892 19.4986 8.42684C19.783 8.97477 19.9517 9.57536 19.994 10.1912C20.0364 10.8071 19.9516 11.4252 19.7448 12.0069C19.5381 12.5886 19.2139 13.1215 18.7924 13.5726C18.3709 14.0236 17.8611 14.3831 17.2947 14.6287C16.7283 14.8742 16.1174 15.0006 15.5 15H13V11.413L14.293 12.706C14.4816 12.8882 14.7342 12.9889 14.9964 12.9867C15.2586 12.9844 15.5095 12.8792 15.6949 12.6938C15.8803 12.5084 15.9854 12.2576 15.9877 11.9954C15.99 11.7332 15.8892 11.4806 15.707 11.292L12.707 8.292C12.5195 8.10453 12.2652 7.99921 12 7.99921C11.7349 7.99921 11.4806 8.10453 11.293 8.292L8.29304 11.292C8.11088 11.4806 8.01009 11.7332 8.01237 11.9954C8.01464 12.2576 8.11981 12.5084 8.30522 12.6938C8.49063 12.8792 8.74144 12.9844 9.00364 12.9867C9.26584 12.9889 9.51844 12.8882 9.70704 12.706L11 11.414V15H7.50004Z" fill="#4F4F4F"/>
<path d="M11 15H13V20C13 20.2652 12.8946 20.5196 12.7071 20.7071C12.5196 20.8946 12.2652 21 12 21C11.7348 21 11.4804 20.8946 11.2929 20.7071C11.1054 20.5196 11 20.2652 11 20V15Z" fill="#4F4F4F"/>
</svg>
