<svg width="78" height="17" viewBox="0 0 78 17" fill="none" xmlns="http://www.w3.org/2000/svg">
<path d="M6.62934 9.44573L10.9189 15.6851H6.88931L4.35457 11.8938L3.29301 13.042V15.6851H0V0H3.29301V8.53582L6.56435 4.91784H10.8323L6.62934 9.44573Z" fill="#00A699"/>
<path d="M16.6384 12.977C16.9561 12.977 17.2594 12.9265 17.5483 12.8254C17.8371 12.7098 18.0899 12.5437 18.3065 12.3271C18.5376 12.096 18.7182 11.8144 18.8482 11.4822C18.9926 11.15 19.0648 10.7528 19.0648 10.2906C19.0648 9.84291 18.9926 9.45295 18.8482 9.12076C18.7182 8.77413 18.5376 8.49249 18.3065 8.27584C18.0899 8.0592 17.8371 7.90032 17.5483 7.79922C17.2594 7.68368 16.9561 7.62591 16.6384 7.62591C16.3351 7.62591 16.0318 7.68368 15.7285 7.79922C15.4396 7.90032 15.1796 8.0592 14.9485 8.27584C14.7319 8.49249 14.5514 8.77413 14.4069 9.12076C14.2769 9.45295 14.2119 9.84291 14.2119 10.2906C14.2119 10.7384 14.2769 11.1356 14.4069 11.4822C14.5514 11.8144 14.7319 12.096 14.9485 12.3271C15.1796 12.5437 15.4396 12.7098 15.7285 12.8254C16.0318 12.9265 16.3351 12.977 16.6384 12.977ZM16.6384 4.59288C17.4472 4.59288 18.1982 4.73731 18.8915 5.02617C19.5847 5.30058 20.1841 5.69054 20.6896 6.19605C21.2096 6.70155 21.614 7.30094 21.9028 7.9942C22.2061 8.68747 22.3578 9.45295 22.3578 10.2906C22.3578 11.1283 22.2061 11.901 21.9028 12.6087C21.614 13.302 21.2096 13.9014 20.6896 14.4069C20.1841 14.9124 19.5847 15.3096 18.8915 15.5984C18.1982 15.8729 17.4472 16.0101 16.6384 16.0101C15.8296 16.0101 15.0785 15.8729 14.3853 15.5984C13.692 15.3096 13.0854 14.9124 12.5654 14.4069C12.0599 13.9014 11.6555 13.302 11.3522 12.6087C11.0634 11.901 10.9189 11.1283 10.9189 10.2906C10.9189 9.45295 11.0634 8.68747 11.3522 7.9942C11.6555 7.30094 12.0599 6.70155 12.5654 6.19605C13.0854 5.69054 13.692 5.30058 14.3853 5.02617C15.0785 4.73731 15.8296 4.59288 16.6384 4.59288Z" fill="#00A699"/>
<path d="M23.0686 8.16752C23.2564 8.12419 23.4369 8.09531 23.6102 8.08086C23.7836 8.06642 23.9497 8.0592 24.1085 8.0592C24.4407 8.0592 24.7585 8.10975 25.0618 8.21085C25.3651 8.31195 25.6323 8.47804 25.8634 8.70913C26.0944 8.94022 26.2822 9.24352 26.4266 9.61904C26.5566 9.99456 26.6216 10.4495 26.6216 10.9839V15.6851H29.9146V4.91784H26.7299V6.36937C26.5855 6.06606 26.405 5.81331 26.1883 5.61111C25.9572 5.40891 25.7117 5.25003 25.4517 5.13449C25.1918 5.01895 24.9318 4.93951 24.6718 4.89618C24.3974 4.83841 24.1519 4.80952 23.9352 4.80952C23.603 4.80952 23.3142 4.84563 23.0686 4.91784V8.16752Z" fill="#00A699"/>
<path d="M39.3005 8.16752C39.1127 8.12419 38.9322 8.0953 38.7588 8.08086C38.5855 8.06642 38.4194 8.0592 38.2606 8.0592C37.9284 8.0592 37.6106 8.10975 37.3073 8.21085C37.004 8.31195 36.7368 8.47804 36.5057 8.70913C36.2747 8.94022 36.0869 9.24352 35.9425 9.61904C35.8125 9.99456 35.7475 10.4495 35.7475 10.9839V15.6851H32.4545V4.91784H35.6392V6.36937C35.7836 6.06606 35.9641 5.81331 36.1808 5.61111C36.4119 5.40891 36.6574 5.25003 36.9174 5.13449C37.1773 5.01894 37.4373 4.93951 37.6973 4.89618C37.9717 4.83841 38.2172 4.80952 38.4339 4.80952C38.7661 4.80952 39.0549 4.84563 39.3005 4.91784V8.16752Z" fill="#00A699"/>
<path d="M47.9737 9.01243C47.9593 8.81023 47.9087 8.60081 47.8221 8.38416C47.7498 8.16752 47.6271 7.97254 47.4538 7.79922C47.2804 7.62591 47.0566 7.48148 46.7822 7.36593C46.5222 7.25039 46.1972 7.19262 45.8073 7.19262C45.4606 7.19262 45.1573 7.25039 44.8974 7.36593C44.6374 7.48148 44.4135 7.62591 44.2257 7.79922C44.0524 7.97254 43.9152 8.16752 43.8141 8.38416C43.7275 8.60081 43.6769 8.81023 43.6625 9.01243H47.9737ZM50.9634 12.5871C50.8334 13.0493 50.6312 13.4898 50.3568 13.9086C50.0824 14.3275 49.7358 14.6958 49.3169 15.0135C48.8981 15.3168 48.407 15.5551 47.8437 15.7284C47.2949 15.9162 46.6811 16.0101 46.0022 16.0101C45.2656 16.0101 44.5579 15.8801 43.8791 15.6201C43.2003 15.3601 42.6009 14.9846 42.081 14.4936C41.561 14.0025 41.1494 13.4031 40.8461 12.6954C40.5428 11.9877 40.3911 11.1789 40.3911 10.269C40.3911 9.4024 40.5356 8.62247 40.8244 7.92921C41.1277 7.2215 41.5249 6.62212 42.016 6.13106C42.5215 5.63999 43.0992 5.26447 43.7491 5.0045C44.3991 4.73008 45.0707 4.59288 45.7639 4.59288C47.4393 4.59288 48.7536 5.07672 49.7069 6.0444C50.6746 7.01208 51.1584 8.36972 51.1584 10.1173C51.1584 10.3484 51.1512 10.5723 51.1367 10.7889C51.1223 10.9911 51.1078 11.1067 51.0934 11.1356H43.5975C43.6119 11.4389 43.6841 11.7205 43.8141 11.9805C43.9586 12.226 44.1391 12.4426 44.3557 12.6304C44.5868 12.8182 44.8468 12.9626 45.1357 13.0637C45.4245 13.1648 45.7278 13.2154 46.0456 13.2154C46.6522 13.2154 47.1216 13.0854 47.4538 12.8254C47.8004 12.5654 48.0531 12.226 48.212 11.8072L50.9634 12.5871Z" fill="#00A699"/>
<path d="M58.2339 7.62591C57.8873 7.62591 57.5623 7.68368 57.259 7.79922C56.9701 7.91477 56.7101 8.08808 56.4791 8.31917C56.2624 8.55026 56.0891 8.8319 55.9591 9.16409C55.8291 9.49627 55.7641 9.87901 55.7641 10.3123C55.7641 10.7456 55.8291 11.1283 55.9591 11.4605C56.1035 11.7783 56.2841 12.0527 56.5007 12.2838C56.7318 12.5149 56.999 12.6882 57.3023 12.8037C57.6056 12.9193 57.9306 12.977 58.2772 12.977C58.9127 12.977 59.411 12.8109 59.7721 12.4788C60.1476 12.1466 60.3931 11.7783 60.5087 11.3739L63.4117 12.2621C63.2962 12.7387 63.094 13.2009 62.8051 13.6486C62.5307 14.0964 62.1768 14.4936 61.7435 14.8402C61.3102 15.1868 60.8047 15.4685 60.227 15.6851C59.6493 15.9017 58.9994 16.0101 58.2772 16.0101C57.4684 16.0101 56.7101 15.8729 56.0024 15.5984C55.3092 15.3096 54.7026 14.9124 54.1826 14.4069C53.6627 13.9014 53.251 13.302 52.9477 12.6087C52.6444 11.9155 52.4928 11.15 52.4928 10.3123C52.4928 9.47461 52.6372 8.70913 52.9261 8.01587C53.2294 7.30816 53.6338 6.70155 54.1393 6.19605C54.6592 5.69054 55.2586 5.30058 55.9374 5.02617C56.6307 4.73731 57.3745 4.59288 58.1689 4.59288C58.9055 4.59288 59.5699 4.7012 60.162 4.91784C60.7542 5.12005 61.2669 5.39446 61.7002 5.74109C62.1335 6.08773 62.4873 6.49213 62.7618 6.95431C63.0362 7.40204 63.2312 7.86422 63.3467 8.34083L60.4003 9.22908C60.3426 9.02688 60.2559 8.8319 60.1404 8.64414C60.0248 8.44194 59.8804 8.26862 59.7071 8.12419C59.5338 7.96532 59.3243 7.84255 59.0788 7.75589C58.8333 7.66924 58.5516 7.62591 58.2339 7.62591Z" fill="#00A699"/>
<path d="M69.3596 4.91784H71.4611V7.79922H69.3596V11.8288C69.3596 12.2766 69.4679 12.5799 69.6846 12.7387C69.9012 12.8832 70.1901 12.9554 70.5512 12.9554C70.7245 12.9554 70.8834 12.9482 71.0278 12.9337C71.1867 12.9048 71.3167 12.8759 71.4178 12.8471V15.5768C71.3455 15.6057 71.1722 15.6634 70.8978 15.7501C70.6234 15.8368 70.2262 15.8801 69.7063 15.8801C68.5797 15.8801 67.6987 15.5768 67.0632 14.9702C66.4277 14.3491 66.1099 13.497 66.1099 12.4138V7.79922H64.2035V4.91784H64.7451C65.3084 4.91784 65.7272 4.75175 66.0016 4.41956C66.276 4.08737 66.4132 3.66852 66.4132 3.16302V1.77649H69.3596V4.91784Z" fill="#00A699"/>
<path d="M6.62934 9.44573L10.9189 15.6851H6.88931L4.35457 11.8938L3.29301 13.042V15.6851H0V0H3.29301V8.53582L6.56435 4.91784H10.8323L6.62934 9.44573Z" fill="#007C89"/>
<path d="M16.6384 12.977C16.9561 12.977 17.2594 12.9265 17.5483 12.8254C17.8371 12.7098 18.0899 12.5437 18.3065 12.3271C18.5376 12.096 18.7182 11.8144 18.8482 11.4822C18.9926 11.15 19.0648 10.7528 19.0648 10.2906C19.0648 9.84291 18.9926 9.45295 18.8482 9.12076C18.7182 8.77413 18.5376 8.49249 18.3065 8.27584C18.0899 8.0592 17.8371 7.90032 17.5483 7.79922C17.2594 7.68368 16.9561 7.62591 16.6384 7.62591C16.3351 7.62591 16.0318 7.68368 15.7285 7.79922C15.4396 7.90032 15.1796 8.0592 14.9485 8.27584C14.7319 8.49249 14.5514 8.77413 14.4069 9.12076C14.2769 9.45295 14.2119 9.84291 14.2119 10.2906C14.2119 10.7384 14.2769 11.1356 14.4069 11.4822C14.5514 11.8144 14.7319 12.096 14.9485 12.3271C15.1796 12.5437 15.4396 12.7098 15.7285 12.8254C16.0318 12.9265 16.3351 12.977 16.6384 12.977ZM16.6384 4.59288C17.4472 4.59288 18.1982 4.73731 18.8915 5.02617C19.5847 5.30058 20.1841 5.69054 20.6896 6.19605C21.2096 6.70155 21.614 7.30094 21.9028 7.9942C22.2061 8.68747 22.3578 9.45295 22.3578 10.2906C22.3578 11.1283 22.2061 11.901 21.9028 12.6087C21.614 13.302 21.2096 13.9014 20.6896 14.4069C20.1841 14.9124 19.5847 15.3096 18.8915 15.5984C18.1982 15.8729 17.4472 16.0101 16.6384 16.0101C15.8296 16.0101 15.0785 15.8729 14.3853 15.5984C13.692 15.3096 13.0854 14.9124 12.5654 14.4069C12.0599 13.9014 11.6555 13.302 11.3522 12.6087C11.0634 11.901 10.9189 11.1283 10.9189 10.2906C10.9189 9.45295 11.0634 8.68747 11.3522 7.9942C11.6555 7.30094 12.0599 6.70155 12.5654 6.19605C13.0854 5.69054 13.692 5.30058 14.3853 5.02617C15.0785 4.73731 15.8296 4.59288 16.6384 4.59288Z" fill="#007C89"/>
<path d="M23.0686 8.16752C23.2564 8.12419 23.4369 8.09531 23.6102 8.08086C23.7836 8.06642 23.9497 8.0592 24.1085 8.0592C24.4407 8.0592 24.7585 8.10975 25.0618 8.21085C25.3651 8.31195 25.6323 8.47804 25.8634 8.70913C26.0944 8.94022 26.2822 9.24352 26.4266 9.61904C26.5566 9.99456 26.6216 10.4495 26.6216 10.9839V15.6851H29.9146V4.91784H26.7299V6.36937C26.5855 6.06606 26.405 5.81331 26.1883 5.61111C25.9572 5.40891 25.7117 5.25003 25.4517 5.13449C25.1918 5.01895 24.9318 4.93951 24.6718 4.89618C24.3974 4.83841 24.1519 4.80952 23.9352 4.80952C23.603 4.80952 23.3142 4.84563 23.0686 4.91784V8.16752Z" fill="#007C89"/>
<path d="M39.3005 8.16752C39.1127 8.12419 38.9322 8.0953 38.7588 8.08086C38.5855 8.06642 38.4194 8.0592 38.2606 8.0592C37.9284 8.0592 37.6106 8.10975 37.3073 8.21085C37.004 8.31195 36.7368 8.47804 36.5057 8.70913C36.2747 8.94022 36.0869 9.24352 35.9425 9.61904C35.8125 9.99456 35.7475 10.4495 35.7475 10.9839V15.6851H32.4545V4.91784H35.6392V6.36937C35.7836 6.06606 35.9641 5.81331 36.1808 5.61111C36.4119 5.40891 36.6574 5.25003 36.9174 5.13449C37.1773 5.01894 37.4373 4.93951 37.6973 4.89618C37.9717 4.83841 38.2172 4.80952 38.4339 4.80952C38.7661 4.80952 39.0549 4.84563 39.3005 4.91784V8.16752Z" fill="#007C89"/>
<path d="M47.9737 9.01243C47.9593 8.81023 47.9087 8.60081 47.8221 8.38416C47.7498 8.16752 47.6271 7.97254 47.4538 7.79922C47.2804 7.62591 47.0566 7.48148 46.7822 7.36593C46.5222 7.25039 46.1972 7.19262 45.8073 7.19262C45.4606 7.19262 45.1573 7.25039 44.8974 7.36593C44.6374 7.48148 44.4135 7.62591 44.2257 7.79922C44.0524 7.97254 43.9152 8.16752 43.8141 8.38416C43.7275 8.60081 43.6769 8.81023 43.6625 9.01243H47.9737ZM50.9634 12.5871C50.8334 13.0493 50.6312 13.4898 50.3568 13.9086C50.0824 14.3275 49.7358 14.6958 49.3169 15.0135C48.8981 15.3168 48.407 15.5551 47.8437 15.7284C47.2949 15.9162 46.6811 16.0101 46.0022 16.0101C45.2656 16.0101 44.5579 15.8801 43.8791 15.6201C43.2003 15.3601 42.6009 14.9846 42.081 14.4936C41.561 14.0025 41.1494 13.4031 40.8461 12.6954C40.5428 11.9877 40.3911 11.1789 40.3911 10.269C40.3911 9.4024 40.5356 8.62247 40.8244 7.92921C41.1277 7.2215 41.5249 6.62212 42.016 6.13106C42.5215 5.63999 43.0992 5.26447 43.7491 5.0045C44.3991 4.73008 45.0707 4.59288 45.7639 4.59288C47.4393 4.59288 48.7536 5.07672 49.7069 6.0444C50.6746 7.01208 51.1584 8.36972 51.1584 10.1173C51.1584 10.3484 51.1512 10.5723 51.1367 10.7889C51.1223 10.9911 51.1078 11.1067 51.0934 11.1356H43.5975C43.6119 11.4389 43.6841 11.7205 43.8141 11.9805C43.9586 12.226 44.1391 12.4426 44.3557 12.6304C44.5868 12.8182 44.8468 12.9626 45.1357 13.0637C45.4245 13.1648 45.7278 13.2154 46.0456 13.2154C46.6522 13.2154 47.1216 13.0854 47.4538 12.8254C47.8004 12.5654 48.0531 12.226 48.212 11.8072L50.9634 12.5871Z" fill="#007C89"/>
<path d="M58.2339 7.62591C57.8873 7.62591 57.5623 7.68368 57.259 7.79922C56.9701 7.91477 56.7101 8.08808 56.4791 8.31917C56.2624 8.55026 56.0891 8.8319 55.9591 9.16409C55.8291 9.49627 55.7641 9.87901 55.7641 10.3123C55.7641 10.7456 55.8291 11.1283 55.9591 11.4605C56.1035 11.7783 56.2841 12.0527 56.5007 12.2838C56.7318 12.5149 56.999 12.6882 57.3023 12.8037C57.6056 12.9193 57.9306 12.977 58.2772 12.977C58.9127 12.977 59.411 12.8109 59.7721 12.4788C60.1476 12.1466 60.3931 11.7783 60.5087 11.3739L63.4117 12.2621C63.2962 12.7387 63.094 13.2009 62.8051 13.6486C62.5307 14.0964 62.1768 14.4936 61.7435 14.8402C61.3102 15.1868 60.8047 15.4685 60.227 15.6851C59.6493 15.9017 58.9994 16.0101 58.2772 16.0101C57.4684 16.0101 56.7101 15.8729 56.0024 15.5984C55.3092 15.3096 54.7026 14.9124 54.1826 14.4069C53.6627 13.9014 53.251 13.302 52.9477 12.6087C52.6444 11.9155 52.4928 11.15 52.4928 10.3123C52.4928 9.47461 52.6372 8.70913 52.9261 8.01587C53.2294 7.30816 53.6338 6.70155 54.1393 6.19605C54.6592 5.69054 55.2586 5.30058 55.9374 5.02617C56.6307 4.73731 57.3745 4.59288 58.1689 4.59288C58.9055 4.59288 59.5699 4.7012 60.162 4.91784C60.7542 5.12005 61.2669 5.39446 61.7002 5.74109C62.1335 6.08773 62.4873 6.49213 62.7618 6.95431C63.0362 7.40204 63.2312 7.86422 63.3467 8.34083L60.4003 9.22908C60.3426 9.02688 60.2559 8.8319 60.1404 8.64414C60.0248 8.44194 59.8804 8.26862 59.7071 8.12419C59.5338 7.96532 59.3243 7.84255 59.0788 7.75589C58.8333 7.66924 58.5516 7.62591 58.2339 7.62591Z" fill="#007C89"/>
<path d="M69.3596 4.91784H71.4611V7.79922H69.3596V11.8288C69.3596 12.2766 69.4679 12.5799 69.6846 12.7387C69.9012 12.8832 70.1901 12.9554 70.5512 12.9554C70.7245 12.9554 70.8834 12.9482 71.0278 12.9337C71.1867 12.9048 71.3167 12.8759 71.4178 12.8471V15.5768C71.3455 15.6057 71.1722 15.6634 70.8978 15.7501C70.6234 15.8368 70.2262 15.8801 69.7063 15.8801C68.5797 15.8801 67.6987 15.5768 67.0632 14.9702C66.4277 14.3491 66.1099 13.497 66.1099 12.4138V7.79922H64.2035V4.91784H64.7451C65.3084 4.91784 65.7272 4.75175 66.0016 4.41956C66.276 4.08737 66.4132 3.66852 66.4132 3.16302V1.77649H69.3596V4.91784Z" fill="#007C89"/>
<path d="M73.732 12.803C73.6165 13.0629 73.5587 13.3446 73.5587 13.6479C73.5587 13.9512 73.6165 14.2401 73.732 14.5145C73.8475 14.7744 74.0064 15.0055 74.2086 15.2077C74.4108 15.4099 74.6419 15.5688 74.9019 15.6844C75.1763 15.8143 75.4652 15.8793 75.7685 15.8793C76.0718 15.8793 76.3534 15.8143 76.6134 15.6844C76.8878 15.5688 77.1261 15.4099 77.3283 15.2077C77.545 15.0055 77.711 14.7744 77.8266 14.5145C77.9421 14.2401 77.9999 13.9512 77.9999 13.6479C77.9999 13.3446 77.9421 13.0629 77.8266 12.803C77.711 12.5286 77.545 12.2902 77.3283 12.088C77.1261 11.8858 76.8878 11.727 76.6134 11.6114C76.3534 11.4959 76.0718 11.4381 75.7685 11.4381C75.4652 11.4381 75.1763 11.4959 74.9019 11.6114C74.6419 11.727 74.4108 11.8858 74.2086 12.088C74.0064 12.2902 73.8475 12.5286 73.732 12.803Z" fill="black"/>
</svg>
