
<svg width="78" height="16" viewBox="0 0 78 16" fill="none" xmlns="http://www.w3.org/2000/svg">
<path d="M6.62517 9.43979L10.912 15.6752H6.88498L4.35183 11.8863L3.29093 13.0338V15.6752H0V0H3.29093V8.53045L6.56022 4.91475H10.8254L6.62517 9.43979Z" fill="black"/>
<path d="M16.6279 12.9689C16.9454 12.9689 17.2486 12.9184 17.5372 12.8173C17.8259 12.7019 18.0785 12.5359 18.295 12.3194C18.526 12.0884 18.7064 11.8069 18.8363 11.475C18.9806 11.143 19.0528 10.7461 19.0528 10.2842C19.0528 9.83672 18.9806 9.447 18.8363 9.11502C18.7064 8.76861 18.526 8.48715 18.295 8.27064C18.0785 8.05413 17.8259 7.89535 17.5372 7.79432C17.2486 7.67885 16.9454 7.62111 16.6279 7.62111C16.3248 7.62111 16.0217 7.67885 15.7186 7.79432C15.4299 7.89535 15.1701 8.05413 14.9391 8.27064C14.7226 8.48715 14.5422 8.76861 14.3979 9.11502C14.268 9.447 14.203 9.83672 14.203 10.2842C14.203 10.7316 14.268 11.1286 14.3979 11.475C14.5422 11.8069 14.7226 12.0884 14.9391 12.3194C15.1701 12.5359 15.4299 12.7019 15.7186 12.8173C16.0217 12.9184 16.3248 12.9689 16.6279 12.9689ZM16.6279 4.58999C17.4362 4.58999 18.1868 4.73433 18.8796 5.023C19.5724 5.29725 20.1714 5.68696 20.6766 6.19215C21.1962 6.69734 21.6004 7.29635 21.8891 7.98917C22.1922 8.682 22.3437 9.447 22.3437 10.2842C22.3437 11.1213 22.1922 11.8936 21.8891 12.6008C21.6004 13.2936 21.1962 13.8926 20.6766 14.3978C20.1714 14.903 19.5724 15.3 18.8796 15.5886C18.1868 15.8629 17.4362 16 16.6279 16C15.8196 16 15.069 15.8629 14.3762 15.5886C13.6834 15.3 13.0772 14.903 12.5575 14.3978C12.0524 13.8926 11.6482 13.2936 11.3451 12.6008C11.0564 11.8936 10.9121 11.1213 10.9121 10.2842C10.9121 9.447 11.0564 8.682 11.3451 7.98917C11.6482 7.29635 12.0524 6.69734 12.5575 6.19215C13.0772 5.68696 13.6834 5.29725 14.3762 5.023C15.069 4.73433 15.8196 4.58999 16.6279 4.58999Z" fill="black"/>
<path d="M23.0541 8.16238C23.2418 8.11908 23.4222 8.09021 23.5954 8.07578C23.7686 8.06135 23.9346 8.05413 24.0934 8.05413C24.4253 8.05413 24.7429 8.10465 25.046 8.20568C25.3491 8.30672 25.6161 8.47271 25.8471 8.70365C26.078 8.9346 26.2657 9.23771 26.41 9.61299C26.5399 9.98827 26.6049 10.4429 26.6049 10.977V15.6752H29.8958V4.91475H26.7131V6.36536C26.5688 6.06225 26.3884 5.80965 26.1718 5.60758C25.9409 5.4055 25.6955 5.24673 25.4357 5.13126C25.1759 5.01579 24.9161 4.9364 24.6563 4.8931C24.382 4.83536 24.1367 4.8065 23.9202 4.8065C23.5882 4.8065 23.2995 4.84258 23.0541 4.91475V8.16238Z" fill="black"/>
<path d="M39.2757 8.16238C39.0881 8.11908 38.9077 8.09021 38.7345 8.07578C38.5613 8.06135 38.3953 8.05413 38.2365 8.05413C37.9045 8.05413 37.587 8.10464 37.2839 8.20568C36.9807 8.30672 36.7137 8.47271 36.4828 8.70365C36.2518 8.9346 36.0642 9.23771 35.9199 9.61299C35.7899 9.98827 35.725 10.4429 35.725 10.977V15.6752H32.4341V4.91475H35.6167V6.36536C35.7611 6.06225 35.9415 5.80965 36.158 5.60758C36.389 5.4055 36.6343 5.24673 36.8941 5.13126C37.1539 5.01579 37.4138 4.9364 37.6736 4.8931C37.9478 4.83536 38.1932 4.8065 38.4097 4.8065C38.7417 4.8065 39.0304 4.84258 39.2757 4.91475V8.16238Z" fill="black"/>
<path d="M47.9435 9.00677C47.9291 8.80469 47.8786 8.5954 47.792 8.37889C47.7198 8.16238 47.5971 7.96752 47.4239 7.79432C47.2507 7.62111 47.027 7.47677 46.7527 7.3613C46.4929 7.24583 46.1682 7.18809 45.7784 7.18809C45.432 7.18809 45.1289 7.24583 44.8691 7.3613C44.6093 7.47677 44.3856 7.62111 44.1979 7.79432C44.0247 7.96752 43.8876 8.16238 43.7866 8.37889C43.7 8.5954 43.6494 8.80469 43.635 9.00677H47.9435ZM50.9314 12.5792C50.8015 13.041 50.5994 13.4813 50.3251 13.8999C50.0509 14.3185 49.7045 14.6865 49.2859 15.0041C48.8673 15.3072 48.3765 15.5453 47.8136 15.7185C47.2651 15.9062 46.6517 16 45.9733 16C45.2372 16 44.5299 15.8701 43.8515 15.6103C43.1731 15.3505 42.5741 14.9752 42.0545 14.4844C41.5349 13.9937 41.1235 13.3947 40.8204 12.6874C40.5173 11.9802 40.3657 11.1719 40.3657 10.2625C40.3657 9.39648 40.5101 8.61705 40.7987 7.92422C41.1019 7.21696 41.4988 6.61795 41.9895 6.1272C42.4947 5.63645 43.0721 5.26116 43.7216 5.00135C44.3711 4.72711 45.0423 4.58999 45.7351 4.58999C47.4095 4.58999 48.723 5.07352 49.6756 6.0406C50.6427 7.00767 51.1262 8.36446 51.1262 10.111C51.1262 10.3419 51.119 10.5656 51.1046 10.7821C51.0901 10.9842 51.0757 11.0997 51.0613 11.1286H43.5701C43.5845 11.4317 43.6567 11.7131 43.7866 11.9729C43.9309 12.2183 44.1113 12.4348 44.3278 12.6225C44.5588 12.8101 44.8186 12.9544 45.1073 13.0555C45.3959 13.1565 45.6991 13.207 46.0166 13.207C46.6228 13.207 47.0919 13.0771 47.4239 12.8173C47.7703 12.5575 48.0229 12.2183 48.1817 11.7997L50.9314 12.5792Z" fill="black"/>
<path d="M58.1973 7.62111C57.8508 7.62111 57.5261 7.67885 57.223 7.79432C56.9343 7.90979 56.6745 8.083 56.4435 8.31394C56.227 8.54488 56.0538 8.82634 55.9239 9.15832C55.794 9.4903 55.7291 9.8728 55.7291 10.3058C55.7291 10.7388 55.794 11.1213 55.9239 11.4533C56.0683 11.7709 56.2487 12.0451 56.4652 12.276C56.6961 12.507 56.9632 12.6802 57.2663 12.7957C57.5694 12.9111 57.8941 12.9689 58.2406 12.9689C58.8756 12.9689 59.3736 12.8029 59.7345 12.4709C60.1097 12.1389 60.3551 11.7709 60.4706 11.3667L63.3718 12.2544C63.2563 12.7307 63.0543 13.1926 62.7656 13.6401C62.4913 14.0875 62.1377 14.4844 61.7047 14.8309C61.2717 15.1773 60.7665 15.4587 60.1891 15.6752C59.6118 15.8917 58.9622 16 58.2406 16C57.4323 16 56.6745 15.8629 55.9672 15.5886C55.2744 15.3 54.6682 14.903 54.1485 14.3978C53.6289 13.8926 53.2176 13.2936 52.9144 12.6008C52.6113 11.908 52.4598 11.143 52.4598 10.3058C52.4598 9.46865 52.6041 8.70365 52.8928 8.01083C53.1959 7.30356 53.6 6.69734 54.1052 6.19215C54.6249 5.68696 55.2239 5.29725 55.9023 5.023C56.5951 4.73433 57.3384 4.58999 58.1323 4.58999C58.8684 4.58999 59.5324 4.69824 60.1242 4.91475C60.716 5.11683 61.2284 5.39107 61.6614 5.73748C62.0944 6.0839 62.448 6.48805 62.7223 6.94993C62.9965 7.39738 63.1914 7.85927 63.3069 8.33559L60.3623 9.22328C60.3046 9.0212 60.218 8.82634 60.1025 8.6387C59.9871 8.43663 59.8427 8.26342 59.6695 8.11908C59.4963 7.96031 59.287 7.83762 59.0416 7.75102C58.7963 7.66441 58.5148 7.62111 58.1973 7.62111Z" fill="black"/>
<path d="M69.316 4.91475H71.4161V7.79432H69.316V11.8214C69.316 12.2688 69.4242 12.5719 69.6408 12.7307C69.8573 12.8751 70.1459 12.9472 70.5068 12.9472C70.68 12.9472 70.8388 12.94 70.9831 12.9256C71.1419 12.8967 71.2718 12.8678 71.3728 12.839V15.567C71.3007 15.5959 71.1274 15.6536 70.8532 15.7402C70.579 15.8268 70.182 15.8701 69.6624 15.8701C68.5366 15.8701 67.6561 15.567 67.021 14.9608C66.3859 14.3401 66.0684 13.4885 66.0684 12.406V7.79432H64.1631V4.91475H64.7044C65.2673 4.91475 65.6859 4.74876 65.9601 4.41678C66.2344 4.0848 66.3715 3.66622 66.3715 3.16103V1.77537H69.316V4.91475Z" fill="black"/>
<path d="M73.6859 12.7956C73.5704 13.0554 73.5127 13.3368 73.5127 13.64C73.5127 13.9431 73.5704 14.2317 73.6859 14.506C73.8014 14.7658 73.9602 14.9967 74.1622 15.1988C74.3643 15.4009 74.5952 15.5597 74.8551 15.6751C75.1293 15.805 75.418 15.87 75.7211 15.87C76.0242 15.87 76.3057 15.805 76.5655 15.6751C76.8397 15.5597 77.0779 15.4009 77.28 15.1988C77.4965 14.9967 77.6625 14.7658 77.7779 14.506C77.8934 14.2317 77.9511 13.9431 77.9511 13.64C77.9511 13.3368 77.8934 13.0554 77.7779 12.7956C77.6625 12.5213 77.4965 12.2832 77.28 12.0811C77.0779 11.879 76.8397 11.7202 76.5655 11.6048C76.3057 11.4893 76.0242 11.4316 75.7211 11.4316C75.418 11.4316 75.1293 11.4893 74.8551 11.6048C74.5952 11.7202 74.3643 11.879 74.1622 12.0811C73.9602 12.2832 73.8014 12.5213 73.6859 12.7956Z" fill="#007C89"/>
</svg>
