<svg width="15" height="15" viewBox="0 0 15 15" fill="none" xmlns="http://www.w3.org/2000/svg">
<path fill-rule="evenodd" clip-rule="evenodd" d="M3.94374 7.32912C3.83438 7.21973 3.77295 7.07138 3.77295 6.9167C3.77295 6.76203 3.83438 6.61368 3.94374 6.50429L7.44374 3.00429C7.55313 2.89493 7.70148 2.8335 7.85616 2.8335C8.01084 2.8335 8.15918 2.89493 8.26857 3.00429L11.7686 6.50429C11.8748 6.61431 11.9336 6.76166 11.9323 6.91461C11.931 7.06755 11.8696 7.21386 11.7615 7.32202C11.6533 7.43017 11.507 7.49152 11.3541 7.49285C11.2011 7.49418 11.0538 7.43538 10.9437 7.32912L8.43949 4.82487V11.5834C8.43949 11.7381 8.37803 11.8865 8.26864 11.9959C8.15924 12.1052 8.01087 12.1667 7.85616 12.1667C7.70145 12.1667 7.55308 12.1052 7.44368 11.9959C7.33428 11.8865 7.27282 11.7381 7.27282 11.5834V4.82487L4.76857 7.32912C4.65918 7.43848 4.51084 7.49991 4.35616 7.49991C4.20148 7.49991 4.05313 7.43848 3.94374 7.32912Z" fill="black" fill-opacity="0.87"/>
</svg>
